<?xml version="1.0" encoding="UTF-8" standalone="no"?>
<svg width="1440" height="900" viewBox="0 0 1440 900" fill="none" xmlns="http://www.w3.org/2000/svg">
  <rect width="1440" height="900" fill="url(#paint0_linear)"/>
  <g opacity="0.6" filter="url(#filter0_f)">
    <circle cx="700" cy="450" r="300" fill="#007AFF" fill-opacity="0.4"/>
  </g>
  <g opacity="0.4" filter="url(#filter1_f)">
    <circle cx="1100" cy="650" r="250" fill="#5856D6" fill-opacity="0.5"/>
  </g>
  <g opacity="0.3" filter="url(#filter2_f)">
    <circle cx="300" cy="300" r="200" fill="#34C759" fill-opacity="0.3"/>
  </g>
  <g opacity="0.7">
    <path d="M0 450L120 420L240 450L360 480L480 450L600 420L720 450L840 480L960 450L1080 420L1200 450L1320 480L1440 450V900H0V450Z" fill="url(#paint1_linear)" fill-opacity="0.1"/>
  </g>
  <defs>
    <filter id="filter0_f" x="200" y="-50" width="1000" height="1000" filterUnits="userSpaceOnUse" color-interpolation-filters="sRGB">
      <feFlood flood-opacity="0" result="BackgroundImageFix"/>
      <feBlend mode="normal" in="SourceGraphic" in2="BackgroundImageFix" result="shape"/>
      <feGaussianBlur stdDeviation="100" result="effect1_foregroundBlur"/>
    </filter>
    <filter id="filter1_f" x="650" y="200" width="900" height="900" filterUnits="userSpaceOnUse" color-interpolation-filters="sRGB">
      <feFlood flood-opacity="0" result="BackgroundImageFix"/>
      <feBlend mode="normal" in="SourceGraphic" in2="BackgroundImageFix" result="shape"/>
      <feGaussianBlur stdDeviation="100" result="effect1_foregroundBlur"/>
    </filter>
    <filter id="filter2_f" x="-100" y="-100" width="800" height="800" filterUnits="userSpaceOnUse" color-interpolation-filters="sRGB">
      <feFlood flood-opacity="0" result="BackgroundImageFix"/>
      <feBlend mode="normal" in="SourceGraphic" in2="BackgroundImageFix" result="shape"/>
      <feGaussianBlur stdDeviation="100" result="effect1_foregroundBlur"/>
    </filter>
    <linearGradient id="paint0_linear" x1="720" y1="0" x2="720" y2="900" gradientUnits="userSpaceOnUse">
      <stop stop-color="#FAFAFA"/>
      <stop offset="1" stop-color="#F2F2F7"/>
    </linearGradient>
    <linearGradient id="paint1_linear" x1="720" y1="420" x2="720" y2="900" gradientUnits="userSpaceOnUse">
      <stop stop-color="#007AFF"/>
      <stop offset="1" stop-color="#5856D6"/>
    </linearGradient>
  </defs>
</svg>
